<svg width="17" height="16" viewBox="0 0 17 16" fill="none" xmlns="http://www.w3.org/2000/svg">
<path d="M0.75 1C0.75 0.447715 1.19772 0 1.75 0H3.90287C4.39171 0 4.8089 0.353413 4.88927 0.835601L5.62858 5.27147C5.70075 5.70451 5.48206 6.13397 5.0894 6.3303L3.54126 7.10437C4.65756 9.87832 6.87168 12.0924 9.64563 13.2087L10.4197 11.6606C10.616 11.2679 11.0455 11.0492 11.4785 11.1214L15.9144 11.8607C16.3966 11.9411 16.75 12.3583 16.75 12.8471V15C16.75 15.5523 16.3023 16 15.75 16H13.75C6.5703 16 0.75 10.1797 0.75 3V1Z" fill="#9CA3AF"/>
</svg>
