<svg width="17" height="12" viewBox="0 0 17 12" fill="none" xmlns="http://www.w3.org/2000/svg">
<path d="M0.253 1.884L8.25 5.882L16.247 1.884C16.2174 1.37444 15.9941 0.895488 15.6228 0.545227C15.2516 0.194965 14.7604 -9.35847e-05 14.25 3.36834e-08H2.25C1.73958 -9.35847e-05 1.24845 0.194965 0.877178 0.545227C0.505908 0.895488 0.282604 1.37444 0.253 1.884Z" fill="#9CA3AF"/>
<path d="M16.25 4.118L8.25 8.118L0.25 4.118V10C0.25 10.5304 0.460714 11.0391 0.835786 11.4142C1.21086 11.7893 1.71957 12 2.25 12H14.25C14.7804 12 15.2891 11.7893 15.6642 11.4142C16.0393 11.0391 16.25 10.5304 16.25 10V4.118Z" fill="#9CA3AF"/>
</svg>
